<?xml version="1.0" encoding="utf-8"?>
<!-- Generator: Adobe Illustrator 24.2.0, SVG Export Plug-In . SVG Version: 6.00 Build 0)  -->
<svg version="1.1" id="Layer_1" xmlns="http://www.w3.org/2000/svg" xmlns:xlink="http://www.w3.org/1999/xlink" x="0px" y="0px"
	 viewBox="0 0 508.3 353.7" style="enable-background:new 0 0 508.3 353.7;" xml:space="preserve">
<style type="text/css">
	.st0{display:none;fill:none;stroke:#000000;stroke-width:3;stroke-miterlimit:10;}
	.st1{display:none;}
	.st2{display:inline;}
	.st3{display:inline;fill:none;stroke:#000000;stroke-miterlimit:10;}
	.st4{fill:#FFFFFF;}
	.st5{fill:#FBBF24;}
	.st6{fill:#BFDBFE;}
	.st7{fill:#1E3A8A;}
	.st8{display:none;fill:#CDDDEA;}
	.st9{display:inline;fill:#1F4690;}
</style>
<g class="st1">
	<g class="st2">
		<path d="M-33.7,15.9c-0.5-0.4-0.7-1-0.7-1.7V-53c0-0.8,0.2-1.4,0.7-1.8c0.5-0.5,1-0.7,1.7-0.7h5.1c1.1,0,2,0.5,2.7,1.7l21.7,41.6
			l21.9-41.6c0.1-0.4,0.4-0.8,0.9-1.1c0.5-0.3,1-0.5,1.7-0.5h5c0.8,0,1.3,0.2,1.8,0.7c0.5,0.5,0.7,1,0.7,1.8v67.3
			c0,0.7-0.2,1.3-0.7,1.7s-1.1,0.7-1.8,0.7h-5c-0.7,0-1.3-0.2-1.7-0.7c-0.5-0.4-0.7-1-0.7-1.7v-50.7L2.5-2.9
			C1.8-1.4,0.7-0.7-0.8-0.7H-4c-1.5,0-2.6-0.7-3.3-2.2l-17.3-33.6v50.7c0,0.7-0.2,1.3-0.7,1.7s-1,0.7-1.7,0.7H-32
			C-32.7,16.6-33.2,16.4-33.7,15.9z"/>
		<path d="M51.6,15.6c-2.9-1.4-5.2-3.2-6.8-5.6s-2.5-5-2.5-7.9c0-4.5,1.9-8.3,5.6-11.2c3.7-2.9,8.8-4.8,15.2-5.7L78.4-17v-3
			c0-7-4-10.5-12.1-10.5c-3,0-5.5,0.6-7.4,1.9c-1.9,1.3-3.4,2.8-4.3,4.5c-0.2,0.6-0.5,1.1-0.8,1.3c-0.3,0.3-0.7,0.4-1.3,0.4h-4.4
			c-0.6,0-1.2-0.2-1.6-0.7c-0.5-0.5-0.7-1-0.7-1.6c0.1-1.6,0.8-3.5,2.3-5.6s3.8-3.9,6.8-5.5S61.9-38,66.5-38
			c7.7,0,13.2,1.8,16.6,5.4s5.1,8.1,5.1,13.4v33.4c0,0.7-0.2,1.3-0.7,1.7s-1,0.7-1.7,0.7H81c-0.7,0-1.3-0.2-1.7-0.7
			c-0.4-0.4-0.7-1-0.7-1.7V9.8c-1.5,2.2-3.7,4.1-6.6,5.6c-2.9,1.5-6.6,2.3-11,2.3C57.7,17.6,54.5,16.9,51.6,15.6z M74.2,5.5
			c2.8-2.9,4.3-7.1,4.3-12.6V-10L66.5-8.2c-4.9,0.7-8.6,1.8-11,3.4s-3.7,3.7-3.7,6.1c0,2.8,1.1,4.9,3.4,6.3c2.3,1.5,4.9,2.2,8,2.2
			C67.6,9.9,71.3,8.4,74.2,5.5z"/>
		<path d="M109.4,15.3c-3.3-1.5-5.7-3.3-7.3-5.3s-2.4-3.6-2.4-4.9c0-0.7,0.3-1.2,0.8-1.6c0.5-0.4,1.1-0.6,1.6-0.6h4.6
			c0.7,0,1.3,0.3,1.8,1c1.7,1.9,3.4,3.4,5.4,4.5c1.9,1.1,4.5,1.6,7.7,1.6c3.6,0,6.5-0.7,8.7-2.1s3.4-3.3,3.4-5.8
			c0-1.6-0.5-3-1.4-4.1c-0.9-1.1-2.5-2-4.7-2.8c-2.2-0.8-5.6-1.7-9.9-2.6c-6-1.3-10.2-3.2-12.7-5.7s-3.8-5.7-3.8-9.6
			c0-2.6,0.8-5.1,2.3-7.5s3.8-4.3,6.8-5.8c3-1.5,6.6-2.2,10.8-2.2c4.4,0,8.1,0.7,11.2,2.2s5.4,3.1,6.9,5.1s2.3,3.6,2.3,4.9
			c0,0.6-0.2,1.1-0.7,1.5s-1,0.6-1.6,0.6h-4.3c-0.8,0-1.5-0.3-2.1-1c-1.1-1.3-2-2.3-2.8-3c-0.8-0.7-1.9-1.4-3.4-1.9
			c-1.5-0.5-3.4-0.8-5.6-0.8c-3.3,0-5.8,0.7-7.6,2.1c-1.8,1.4-2.7,3.3-2.7,5.5c0,1.4,0.4,2.7,1.1,3.7s2.2,1.9,4.4,2.7
			c2.2,0.8,5.3,1.7,9.4,2.6c6.5,1.4,11.1,3.4,13.9,5.9c2.7,2.6,4.1,5.8,4.1,9.8c0,2.9-0.9,5.6-2.6,8s-4.2,4.3-7.6,5.7
			c-3.3,1.4-7.3,2.1-11.9,2.1C116.7,17.6,112.6,16.9,109.4,15.3z"/>
		<path d="M160.1-1.5v-27.2h-8c-0.7,0-1.3-0.2-1.7-0.7s-0.7-1-0.7-1.7v-3.5c0-0.7,0.2-1.3,0.7-1.7s1-0.7,1.7-0.7h8v-17.2
			c0-0.7,0.2-1.3,0.7-1.7s1-0.7,1.7-0.7h4.8c0.7,0,1.3,0.2,1.7,0.7c0.4,0.5,0.7,1,0.7,1.7V-37h12.8c0.7,0,1.3,0.2,1.7,0.7
			c0.4,0.5,0.7,1,0.7,1.7v3.5c0,0.7-0.2,1.3-0.7,1.7s-1,0.7-1.7,0.7h-12.8v26.5c0,3.4,0.6,6,1.8,7.8s3.1,2.6,5.8,2.6h6.3
			c0.7,0,1.3,0.2,1.7,0.7s0.7,1,0.7,1.7v3.7c0,0.7-0.2,1.3-0.7,1.7s-1,0.7-1.7,0.7h-7.1C165.5,16.6,160.1,10.6,160.1-1.5z"/>
		<path d="M200.2,11.1c-4.2-4.4-6.5-10.3-6.9-17.9l-0.1-3.5l0.1-3.4c0.5-7.4,2.8-13.3,7.1-17.7c4.2-4.4,9.8-6.6,16.7-6.6
			c7.6,0,13.5,2.4,17.7,7.3s6.3,11.4,6.3,19.6v1.8c0,0.7-0.2,1.3-0.7,1.7s-1,0.7-1.7,0.7h-35.6v0.9c0.2,4.5,1.6,8.3,4.1,11.4
			c2.5,3.1,5.8,4.7,9.9,4.7c3.2,0,5.8-0.6,7.8-1.9c2-1.3,3.5-2.6,4.5-4c0.6-0.8,1.1-1.3,1.4-1.5c0.3-0.2,0.9-0.3,1.7-0.3h5.1
			c0.6,0,1.1,0.2,1.5,0.5c0.4,0.3,0.6,0.8,0.6,1.4c0,1.5-0.9,3.3-2.8,5.5s-4.5,4-7.9,5.5s-7.3,2.3-11.7,2.3
			C210.1,17.6,204.4,15.4,200.2,11.1z M231.3-14.1v-0.3c0-4.7-1.3-8.6-3.9-11.6s-6-4.5-10.4-4.5c-4.3,0-7.7,1.5-10.3,4.5
			s-3.8,6.9-3.8,11.6v0.3C203.1-14.1,231.3-14.1,231.3-14.1z"/>
		<path d="M254.1,15.9c-0.5-0.4-0.7-1-0.7-1.7v-48.7c0-0.7,0.2-1.3,0.7-1.8s1-0.7,1.7-0.7h4.7c0.7,0,1.3,0.2,1.8,0.7
			s0.7,1.1,0.7,1.8v4.5c2.8-4.7,7.6-7,14.4-7h4c0.7,0,1.3,0.2,1.7,0.7c0.5,0.5,0.7,1,0.7,1.7v4.2c0,0.7-0.2,1.2-0.7,1.6
			s-1,0.6-1.7,0.6h-6.2c-3.7,0-6.6,1.1-8.8,3.3c-2.1,2.2-3.2,5.1-3.2,8.8v30.3c0,0.7-0.2,1.3-0.7,1.7s-1.1,0.7-1.8,0.7h-5
			C255.1,16.6,254.5,16.4,254.1,15.9z"/>
	</g>
</g>
<path class="st4" d="M255.6,216.7c7.4,3,20.5-22.3,43.8-31.7c22-8.9,37.7,3.7,72,9c17.5,2.7,53.1,5.4,86.1-5
	c-16.2-54.6-24.2-92.2-19.1-115c1.8-7.8,6.4-25.4-2-33c-7.5-6.8-18.4,0.5-36,1c-33.9,0.9-38.5-25.1-74-28c-2.7-0.2-41-3.5-62.1,21.2
	c-6.2,7.2-5.8,16.7-7.5,22c7.6,60.5-0.4,84.7-4,113.1C252,175.7,248.9,214.1,255.6,216.7z"/>
<path class="st4" d="M249.7,218.7c-7.4,3-15.7-22.5-39-32c-22-8.9-37.7,3.7-72,9c-17.5,2.7-59.8,15.2-92.8,4.9
	C62.1,146,76.9,98.5,71.7,75.7c-1.8-7.8-7.3-28.3,1.1-35.9c7.5-6.8,19.3,3.4,36.9,3.9c33.9,0.9,39.2-26.7,74.7-29.7
	c2.7-0.2,38.2-1,59.3,23.7c6.2,7.2,9.3,14.7,11,20c-7.6,60.5-5.6,102.6-2,131C253.4,194.2,256.3,216.1,249.7,218.7z"/>
<g>
	<path class="st5" d="M394.3,241.9c-33,0-66,0.1-98.9-0.1c-3.7,0-5.6,0.9-7.4,4.4c-11.9,23.4-50,26.7-66,5.9
		c-0.6-0.7-1.3-1.4-1.5-2.3c-1.7-8.8-8-8.1-14.8-8.1c-63.4,0.1-126.8,0.1-190.2,0.1c-7,0-7,0-5.6-6.6
		c12.4-59.4,24.9-118.8,37.5-178.2c0.4-2,0-4.8,3.6-5.2c5.5-0.6,6.8,0.3,5.8,6.3C53,80.8,49.3,103.4,45.4,126
		c-5.3,30.6-11.1,61.2-15.6,91.9c-0.2,1.4-0.1,2.9-0.3,4.4c-0.5,3.3,0.8,4.3,4.1,4.6c22,1.9,43.5,0.1,65-5.2
		c18.9-4.6,36.4-12.6,53.9-20.7c36.5-16.9,73.2-0.9,93.9,24.6c6.9,8.5,6.6,8.3,13.1-0.2c18.8-24.7,44.1-33.8,74.5-30.1
		c16.3,2,30.3,10,45,16.2c30.1,12.6,61.2,18.4,93.8,15.5c3.6-0.3,4.7-1.1,4.2-5.1c-3.4-27.8-8.4-55.4-13-83c-4.3-26-8.9-52-13.3-78
		c-0.2-1.3-0.4-2.5-0.3-3.8c0.1-2-1.5-5.1,2.6-5.2c3.2-0.1,5.6-0.3,6.5,4.3c8.4,40.4,17.1,80.7,25.8,121.1
		c4.2,19.6,8.2,39.1,12.6,58.6c1,4.6,0.2,5.9-4.7,5.9c-33-0.2-65.9-0.1-98.9-0.1C394.3,241.8,394.3,241.9,394.3,241.9z"/>
	<path class="st6" d="M227.8,191.5c-12.7-10.6-27-17.2-44.1-17.7c-15.5-0.5-30.3,2.5-45.1,6.3c-15.4,4-30.8,6.4-46.8,3.8
		c-8.5-1.4-15.4-6.3-23.2-9.3c-2-0.8-3.2-1.7-3.7-2.9c-1-0.5-1.7-1.6-1.8-3c-0.6-6.4,1.1-12.6,2-18.8c0.9-6.4,1-12.9,1.8-19.3
		c0.7-5.7,1.6-11.4,2.4-17.1c0.7-5.5,1.7-10.8,4.1-15.9c0.1-0.3,0.3-0.5,0.4-0.7c0.2-1.6,0.5-3.3,0.8-4.9c0.1-0.3,0.2-0.6,0.3-0.9
		c-0.1-0.4-0.1-0.8,0-1.3c1-4.9,0.8-9.8,3.1-14.2c0.1-3.1,0-6.2,0-9.4c0.1-6.9,0.8-16.4,8.6-18.8c1.4-0.4,2.6,0,3.3,0.8
		c8.1,0,16.2-0.2,24.4-0.8c1.8-0.2,3.7-0.3,5.5-0.6c0.3-1,1.1-1.8,2.4-2.2c12.2-3.1,23.9-7.7,35.6-12.4c5.4-2.2,10.5-5.2,16.1-7
		c5.2-1.7,10.7-2.2,16.1-2.2c0.7,0,1.2,0.1,1.7,0.4c9.3-0.6,18.7,1.5,28.4,5.3c7.5,3,14.8,6.6,22,10.8c-8.5-18.3-29.9-26.4-49-27.9
		c-1.9-0.1-3.1-1.5-3.3-3.1c-5.6,0.4-11.3,1.5-17.2,3.3c-9.2,2.7-17.7,7.5-26.6,11.2c-12.9,5.3-26.5,7.6-40.3,8.5
		c-10.5,0.7-21.2,0.6-31.6-0.3c-7.3-0.6-7.7-1.1-8.5,6.2c-1.1,9.9-2.5,19.7-3.9,29.6c-2.6,17.7-5.4,35.4-8,53.1
		c-2.8,18.2-5.5,36.5-8.2,54.7c-1.7,11.1-3.3,22.2-5,33.3c-0.5,3.7,0.9,5.8,4.8,6.3c7.9,1,15.7,1.8,23.7,1.1
		c16.3-1.4,32.3-4.3,47.9-9.3c16.6-5.4,32.2-13.4,49.5-16.6c27.7-5,52.2,0.8,72.5,21.3c3.7,3.7,6.2,8.6,11.5,11.9
		C245.6,209.7,237.6,199.8,227.8,191.5z"/>
	<path class="st6" d="M467,204.5c-1.3-7.5-2.3-15-3.5-22.5c-2.8-18.4-5.6-36.8-8.3-55.3c-2.7-18.1-5.4-36.1-8.1-54.2
		c-1.9-12.7-3.7-25.4-5.5-38.1c-0.5-3.8-2.4-5.1-6-3.5c-2.6,1.1-5.3,1.2-8,1.1c-10.5-0.5-21,0.3-31.6-1
		c-14.9-1.8-29.3-5.1-42.8-11.6c-12.8-6.2-25.7-10.9-40.6-10.8c-2.8,0-5.5,0.2-8.1,0.6c-0.1,1.3-0.8,2.6-2.5,3.1
		c-4.7,1.4-8.9,3.1-13.1,5.5c-3.7,2.2-8.8,3.5-11.6,6.9c-2.6,3.1-4.6,6.2-7.5,9.1c-2.1,2-3.7,4-4.8,6.4c9.7-5.9,19.8-10.8,30.7-14
		c15.1-4.4,29.6-4.5,43.3,4.6c4.8,3.2,10.3,5.5,15.7,7.7c19.8,8.2,40.7,10.1,61.9,9.9c8.8-0.1,8.8,0,9.8,8.5
		c0.3,2.7,0.7,5.4,1.1,8.1c5,32.5,10.1,65.1,15.1,97.6c1.4,9,1.4,9-6.9,13.6c-0.5,0.3-0.9,0.6-1.4,0.9c-14.3,7.9-29.6,9.4-45.5,7.3
		c-13.3-1.8-26.1-6.2-39.3-8.6c-11.8-2.2-23.8-2.8-35.7-0.7c-19.5,3.4-34.1,14.7-46.2,29.5c-4.1,5-7.5,10.5-8.6,17.5
		c1.8-1,2.7-2.9,4.1-4.3c7.4-7.5,14.3-15.5,23.9-20.5c21.6-11.1,43.8-11.4,66.6-4.3c19.2,6,37.3,15.2,57.4,18.9
		c15.7,2.9,31.3,5.5,47.4,3.8C466.7,214.7,468.3,212.6,467,204.5z"/>
</g>
<path class="st7" d="M451.7,216.5c-5-32.5-19.4-119.1-24.4-151.7c-0.4-2.7-0.8-5.4-1.1-8.1c-1-8.5-1-8.6-9.6-8.5
	c-20.9,0.2-41.5-1.7-61.1-9.9c-5.3-2.2-10.7-4.5-15.5-7.7c-13.6-9.2-27.9-9.1-42.8-4.6c-11.5,3.4-22,8.7-32.1,15.1
	c-1.1,0.7-2.1,2-4,1.7c-0.2-4.1,1.7-7.5,4.2-10.3c12.9-14.7,28.1-23.9,48.6-24.1c14.7-0.1,27.4,4.6,40,10.8
	c13.4,6.5,27.5,9.8,42.3,11.6c10.4,1.3,20.8,0.5,31.2,1c2.7,0.1,5.4,0,7.9-1.1c3.6-1.6,5.4-0.2,6,3.5c1.8,12.7,3.5,25.4,5.4,38.1
	c0.1,0.8,2.6,18.6,8,54.2c3.1,20.5,7.6,49.9,13.8,87.7c-2.6,0.5-5.1,0.9-7.7,1.4"/>
<path class="st7" d="M55.2,216.5c5-32.5,19.5-119.1,24.5-151.7c0.4-2.7,0.8-5.4,1.1-8.1c1-8.5,1-8.6,9.7-8.5
	c21,0.2,41.6-1.7,61.3-9.9c5.3-2.2,10.8-4.5,15.5-7.7c13.6-9.2,27.9-9.1,42.9-4.6c11.5,3.4,22.1,8.7,32.2,15.1c1.1,0.7,2.1,2,4,1.7
	c0.2-4.1-1.7-7.5-4.2-10.3c-12.9-14.7-28.2-23.9-48.7-24.1c-14.7-0.1-27.5,4.6-40.2,10.8c-13.4,6.5-27.6,9.8-42.4,11.6
	c-10.5,1.3-20.9,0.5-31.3,1c-2.7,0.1-5.4,0-7.9-1.1c-3.6-1.6-5.4-0.2-6,3.5c-1.8,12.7-3.6,25.4-5.4,38.1c-0.1,0.8-2.6,18.6-8,54.2
	c-3.1,20.5-7.7,49.9-13.9,87.7c2.6,0.5,5.1,0.9,7.7,1.4"/>
<path class="st7" d="M253.6,288h0.3c3.6,0,6.6-2.9,6.6-6.6V47.6c0-3.6-2.9-6.6-6.6-6.6h-0.3c-3.6,0-6.6,2.9-6.6,6.6v233.8
	C247,285.1,250,288,253.6,288z"/>
<circle class="st7" cx="253.7" cy="24.3" r="10.4"/>
<path class="st7" d="M260.5,247.7c-0.2,10.6,0.7,22.6,1.1,32.9c0.8,0.6,5.5,5.9,5.3,13.8c-0.1,5.7-2.2,9.2-3.2,10.3
	c0.3,1,5,16.7,7.1,25.5c0.2,0.7,0.5,2,0,3.5c-1.3,4.3-7.6,5.8-9.9,6.4c-1,0.2-15.7,3.6-20.5-4.3c-1.4-2.3-1.5-4.9-1.4-6.4
	c1.4-8,3.9-15.7,5.3-23.7V305c-0.9-2-3.5-7-3.5-10.6c0-8.5,4.6-12,6-13.8c0.5-11.6,0.4-23.7,0.4-35"/>
<path class="st8" d="M137.2-3.5c-0.3-5.8,2.4-10.5,6-14.5c18.5-20.8,40.2-33.8,69.5-34c21-0.1,39.2,6.5,57.3,15.3
	c19.2,9.3,39.4,13.9,60.5,16.4c14.9,1.8,29.8,0.7,44.6,1.4c3.9,0.2,7.7,0,11.3-1.6c5.1-2.2,7.8-0.3,8.5,5c2.5,18,5.1,35.9,7.7,53.9
	c3.8,25.5,7.6,51.1,11.4,76.6c3.9,26,7.8,52.1,11.8,78.1c1.6,10.6,3.1,21.3,4.9,31.9c1.9,11.4-0.4,14.4-12.1,15.6
	c-22.7,2.4-44.8-1.3-67-5.4c-28.3-5.2-53.9-18.2-81-26.7c-32.2-10.1-63.6-9.6-94.1,6c-13.6,7-23.4,18.3-33.8,28.9
	c-1.9,2-3.1,4.6-5.7,6.1c1.6-9.8,6.5-17.7,12.2-24.7c17.1-21,37.8-36.9,65.3-41.7c16.8-2.9,33.8-2,50.5,1
	c18.6,3.4,36.7,9.7,55.5,12.2c22.4,3,44,0.9,64.2-10.3c0.7-0.4,1.3-0.9,1.9-1.3c11.7-6.6,11.7-6.6,9.7-19.2
	c-7.1-46-14.2-91.9-21.4-137.9c-0.6-3.8-1.1-7.6-1.6-11.4C372,4.2,372,4.1,359.6,4.2c-30,0.3-59.4-2.5-87.5-14
	c-7.6-3.1-15.4-6.3-22.1-10.8c-19.4-13-39.9-12.9-61.2-6.6c-16.4,4.8-31.6,12.2-46,21.4C141.2-4.9,139.8-3.1,137.2-3.5z"/>
<path class="st8" d="M12.2-3.5c-0.3-5.8,2.4-10.5,6-14.5c18.5-20.8,40.2-33.8,69.5-34c21-0.1,39.2,6.5,57.3,15.3
	c19.2,9.3,39.4,13.9,60.5,16.4c14.9,1.8,29.8,0.7,44.7,1.4c3.9,0.2,7.7,0,11.3-1.6c5.1-2.2,7.8-0.3,8.5,5c2.5,18,5.1,35.9,7.7,53.9
	c3.8,25.5,7.6,51.1,11.4,76.6c3.9,26,7.8,52.1,11.8,78.1c1.6,10.6,3.1,21.3,4.9,31.9c1.9,11.4-0.4,14.4-12.1,15.6
	c-22.7,2.4-44.8-1.3-67-5.4c-28.3-5.2-53.9-18.2-81.1-26.7c-32.2-10.1-63.6-9.6-94.2,6c-13.6,7-23.4,18.3-33.8,28.9
	c-1.9,2-3.2,4.6-5.7,6.1c1.6-9.8,6.5-17.7,12.2-24.7c17.1-21,37.8-36.9,65.3-41.7c16.8-2.9,33.8-2,50.5,1
	c18.6,3.4,36.7,9.7,55.5,12.2c22.4,3,44.1,0.9,64.2-10.3c0.7-0.4,1.3-0.9,1.9-1.3c11.7-6.6,11.7-6.6,9.7-19.2
	c-7.1-46-14.2-91.9-21.3-137.9c-0.6-3.8-1.1-7.6-1.6-11.4c-1.4-12.1-1.4-12.1-13.8-12c-30,0.3-59.4-2.5-87.5-14
	c-7.6-3.1-15.4-6.3-22.1-10.8c-19.4-13-39.9-12.9-61.2-6.6C47.5-22.4,32.3-15,17.9-5.9C16.3-4.9,14.9-3.1,12.2-3.5z"/>
</svg>
