<svg id="Layer_1" data-name="Layer 1" xmlns="http://www.w3.org/2000/svg" viewBox="0 0 276.25 187.7"><defs><style>.cls-1{fill:#fbbf24;}.cls-2{fill:#bfdbfe;}.cls-3{fill:#1e3a8a;}</style></defs><path class="cls-1" d="M232.28,143.32c-18.62,0-37.24,0-55.86,0a3.93,3.93,0,0,0-4.2,2.51c-6.72,13.22-28.22,15.09-37.3,3.33a3.47,3.47,0,0,1-.84-1.27c-.94-5-4.54-4.58-8.35-4.57q-53.7.12-107.4,0c-3.92,0-4,0-3.19-3.71Q25.7,89.29,36.31,39c.24-1.14,0-2.72,2-2.94,3.12-.34,3.81.2,3.27,3.56-2.07,12.76-4.15,25.53-6.36,38.28-3,17.29-6.25,34.54-8.81,51.91-.12.81-.07,1.65-.19,2.46-.28,1.84.44,2.44,2.32,2.6a112,112,0,0,0,36.69-2.91c10.68-2.61,20.56-7.11,30.43-11.68,20.62-9.53,41.36-.5,53.05,13.9,3.89,4.78,3.71,4.7,7.38-.11,10.64-13.95,24.88-19.11,42.07-17,9.18,1.12,17.1,5.65,25.4,9.14,17,7.15,34.55,10.38,53,8.74,2.05-.19,2.63-.65,2.36-2.88-1.89-15.71-4.73-31.26-7.33-46.85-2.44-14.69-5-29.35-7.49-44a9.17,9.17,0,0,1-.16-2.15c.07-1.16-.87-2.88,1.47-2.94,1.79,0,3.16-.16,3.69,2.42,4.74,22.81,9.69,45.58,14.56,68.36,2.37,11,4.64,22.1,7.12,33.12.58,2.6.12,3.34-2.64,3.33-18.62-.11-37.24-.06-55.86-.06Z" transform="translate(-14.75 -11.57)"/><path class="cls-2" d="M138.25,114.88c-7.16-6-15.27-9.72-24.9-10-8.74-.27-17.11,1.39-25.45,3.55-8.7,2.26-17.41,3.64-26.42,2.13-4.79-.81-8.71-3.55-13.09-5.23a3.51,3.51,0,0,1-2.11-1.66,2.06,2.06,0,0,1-1-1.69c-.34-3.62.62-7.09,1.15-10.64s.57-7.27,1-10.88c.42-3.22.92-6.42,1.34-9.64a30.71,30.71,0,0,1,2.29-9,1.81,1.81,0,0,1,.22-.39c.14-.93.28-1.85.44-2.77a2.17,2.17,0,0,1,.15-.49,2,2,0,0,1,0-.73c.55-2.76.47-5.52,1.74-8,.07-1.76,0-3.51,0-5.29,0-3.88.43-9.27,4.83-10.63a1.74,1.74,0,0,1,1.88.45c4.59,0,9.17-.09,13.77-.48,1-.09,2.08-.2,3.12-.32A1.76,1.76,0,0,1,78.59,32a158,158,0,0,0,20.11-7c3.06-1.23,5.94-2.92,9.09-3.94a30.19,30.19,0,0,1,9.11-1.25,2,2,0,0,1,.95.21,37.58,37.58,0,0,1,16,3,87.15,87.15,0,0,1,12.42,6.12c-4.8-10.31-16.9-14.9-27.64-15.73a2,2,0,0,1-1.88-1.72A46.8,46.8,0,0,0,107,13.47c-5.18,1.54-10,4.25-15,6.31a72.8,72.8,0,0,1-22.73,4.83,114.38,114.38,0,0,1-17.85-.16c-4.13-.37-4.33-.61-4.8,3.52-.64,5.57-1.4,11.14-2.22,16.69-1.47,10-3,20-4.53,30q-2.34,15.45-4.63,30.9-1.41,9.39-2.8,18.78c-.31,2.11.52,3.25,2.74,3.54a61.49,61.49,0,0,0,13.36.63,120.73,120.73,0,0,0,27-5.27c9.35-3,18.2-7.57,28-9.34,15.64-2.85,29.48.46,40.92,12,2.07,2.1,3.49,4.83,6.5,6.71A40.52,40.52,0,0,0,138.25,114.88Z" transform="translate(-14.75 -11.57)"/><path class="cls-2" d="M273.3,122.2c-.72-4.23-1.31-8.48-1.95-12.73q-2.36-15.6-4.7-31.2-2.29-15.3-4.57-30.61C261,40.49,260,33.31,259,26.13c-.3-2.12-1.36-2.89-3.4-2a10,10,0,0,1-4.53.63c-5.94-.25-11.88.17-17.84-.53-8.43-1-16.53-2.86-24.18-6.56-7.24-3.49-14.5-6.15-22.91-6.1a37.39,37.39,0,0,0-4.56.31,1.85,1.85,0,0,1-1.4,1.74,31.71,31.71,0,0,0-7.38,3.1c-2.1,1.22-5,2-6.55,3.89A57.79,57.79,0,0,1,162,25.73a12.05,12.05,0,0,0-2.72,3.62,71.21,71.21,0,0,1,17.35-7.9c8.54-2.51,16.7-2.55,24.47,2.62a51,51,0,0,0,8.84,4.34c11.2,4.62,23,5.73,35,5.6,4.95,0,4.94,0,5.51,4.81.18,1.52.4,3,.63,4.55q4.26,27.56,8.53,55.1c.79,5.06.79,5.06-3.88,7.69-.27.15-.5.37-.77.52-8.06,4.43-16.7,5.29-25.66,4.09-7.53-1-14.73-3.5-22.17-4.87a57,57,0,0,0-20.18-.41c-11,1.9-19.25,8.27-26.1,16.66A21,21,0,0,0,155.9,132c1-.57,1.52-1.64,2.29-2.43,4.18-4.23,8.08-8.77,13.52-11.56,12.2-6.25,24.74-6.43,37.62-2.41,10.84,3.39,21.08,8.61,32.38,10.67,8.86,1.62,17.69,3.09,26.76,2.14C273.13,127.94,274.07,126.77,273.3,122.2Z" transform="translate(-14.75 -11.57)"/><path class="cls-3" d="M264.69,129c-2.81-18.37-11-67.26-13.78-85.63-.23-1.52-.44-3-.62-4.55-.56-4.82-.55-4.86-5.44-4.81-11.82.13-23.45-1-34.5-5.6a50.37,50.37,0,0,1-8.73-4.34c-7.66-5.17-15.72-5.13-24.15-2.62A71.21,71.21,0,0,0,159.34,30c-.64.41-1.2,1.11-2.24,1a8.08,8.08,0,0,1,2.35-5.8c7.28-8.32,15.86-13.51,27.42-13.59,8.29-.05,15.46,2.61,22.61,6.1a73.35,73.35,0,0,0,23.87,6.56c5.89.7,11.74.28,17.61.53a9.74,9.74,0,0,0,4.47-.63c2-.89,3.07-.12,3.36,2,1,7.18,2,14.36,3,21.53.07.47,1.47,10.52,4.51,30.61,1.75,11.55,4.31,28.16,7.81,49.53l-4.34.8" transform="translate(-14.75 -11.57)"/><path class="cls-3" d="M40.8,129c2.82-18.37,11-67.26,13.82-85.63.23-1.52.44-3,.62-4.55C55.8,34,55.79,34,60.7,34c11.85.13,23.51-1,34.59-5.6A50.2,50.2,0,0,0,104,24.07c7.69-5.17,15.77-5.13,24.22-2.62A71.37,71.37,0,0,1,146.44,30c.64.41,1.2,1.11,2.25,1a8.09,8.09,0,0,0-2.36-5.8c-7.3-8.32-15.9-13.51-27.49-13.59-8.32-.05-15.51,2.61-22.68,6.1a73.63,73.63,0,0,1-23.93,6.56c-5.9.7-11.78.28-17.66.53a9.84,9.84,0,0,1-4.49-.63c-2-.89-3.07-.12-3.37,2-1,7.18-2,14.36-3.05,21.53-.07.47-1.48,10.52-4.52,30.61-1.75,11.55-4.33,28.16-7.83,49.53l4.35.8" transform="translate(-14.75 -11.57)"/><rect class="cls-3" x="134.35" y="18.34" width="7.59" height="139.44" rx="3.8"/><circle class="cls-3" cx="138.15" cy="8.89" r="5.89"/><path class="cls-3" d="M156.69,146.62c-.13,6,.4,12.78.6,18.57a11,11,0,0,1,3,7.8,9.49,9.49,0,0,1-1.8,5.79c.17.58,2.8,9.45,4,14.38a3.66,3.66,0,0,1,0,2c-.74,2.43-4.31,3.29-5.59,3.6-.55.13-8.86,2-11.59-2.4a6.17,6.17,0,0,1-.8-3.6c.8-4.52,2.2-8.85,3-13.38V179c-.52-1.11-2-3.95-2-6,0-4.8,2.57-6.79,3.4-7.8.26-6.52.2-13.38.2-19.77" transform="translate(-14.75 -11.57)"/></svg>