<?xml version="1.0" encoding="utf-8"?>
<!-- Generator: Adobe Illustrator 24.2.0, SVG Export Plug-In . SVG Version: 6.00 Build 0)  -->
<svg version="1.1" id="Layer_1" xmlns="http://www.w3.org/2000/svg" xmlns:xlink="http://www.w3.org/1999/xlink" x="0px" y="0px"
	 viewBox="0 0 342.3 336.9" style="enable-background:new 0 0 342.3 336.9;" xml:space="preserve">
<style type="text/css">
	.st0{display:none;}
	.st1{display:inline;fill:#FCA311;}
	.st2{display:inline;}
	.st3{fill:#E5E5E5;}
	.st4{display:none;opacity:0.3;fill:#FFFFFF;enable-background:new    ;}
	.st5{display:none;opacity:0.47;fill:#FFFFFF;enable-background:new    ;}
	.st6{display:none;fill:#27293B;}
	.st7{fill:none;stroke:#F2DBB5;stroke-width:0.5;stroke-miterlimit:10;}
	.st8{display:inline;fill:none;stroke:#F2DBB5;stroke-width:0.5;stroke-miterlimit:10;}
	.st9{display:inline;fill:#F9B316;}
	.st10{fill:#3D405B;}
	.st11{fill:#DB6E00;}
	.st12{fill:#F2DBB5;}
	.st13{fill:#225EC9;}
	.st14{fill:#001FAF;}
	.st15{fill:#FFE8D6;}
	.st16{fill:#EBD5C5;}
	.st17{fill:#27293B;}
	.st18{fill:#FCA311;}
	.st19{fill:#F9AC00;}
	.st20{fill:#EE9F87;}
	.st21{fill:#EE815E;}
	.st22{fill:#FFAB91;}
	.st23{fill:#FFFFFF;}
	.st24{fill:#FBBF24;}
	.st25{fill:#F9B00D;}
	.st26{fill:#FF8A65;}
	.st27{fill:#B8B8B8;}
	.st28{fill:#74342E;}
	.st29{fill:#4E342E;}
	.st30{fill:#3E2723;}
</style>
<g id="BACKGROUND" class="st0">
	<rect x="-339.2" y="-98" class="st1" width="750" height="500"/>
</g>
<g id="OBJECTS">
	<g>
		<g class="st0">
			
				<image style="display:inline;overflow:visible;opacity:0.3;enable-background:new    ;" width="2671" height="1825" xlink:href="2C5242CC.png"  transform="matrix(0.2392 0 0 0.2392 -276.7269 -59.3291)">
			</image>
			<g class="st2">
				<rect x="-268.9" y="-51.2" class="st3" width="609.4" height="406.3"/>
			</g>
		</g>
		<path class="st4" d="M340.5-51.2v406.3h-478.6c-21.8-43.8-34-93.2-34-145.4c0-106.4,50.7-201,129.4-260.8L340.5-51.2L340.5-51.2z"
			/>
		<g>
			<path class="st5" d="M327.8,190.2c0,49.7-21.1,94.6-54.8,126c-1.1,1-2.2,2-3.3,3H41.3c-1.1-1-2.2-2-3.3-3
				c-33.7-31.5-54.8-76.3-54.8-126c0-95.2,77.2-172.3,172.3-172.3S327.8,95,327.8,190.2z"/>
			<path class="st6" d="M303.2,319.2H-2c-1.9,0-1.8-3,0.1-3h305.2C305.3,316.2,305.1,319.2,303.2,319.2z"/>
			<g class="st0">
				<g class="st2">
					<polygon class="st7" points="31.7,91.2 113.1,108.9 204.4,35.1 301.4,141.4 265.5,230.2 257.2,172.5 78.1,139.3 30.8,191.1 
											"/>
					<polyline class="st7" points="78.1,139.3 113.1,108.9 235.8,90.4 257.2,172.5 301.4,141.4 					"/>
				</g>
				<polyline class="st8" points="113.1,108.9 110.1,51.7 204.4,35.1 				"/>
				<polyline class="st8" points="235.8,90.4 78.1,139.3 31.7,91.2 				"/>
			</g>
			<g>
				<g class="st0">
					<circle class="st9" cx="108.5" cy="57.9" r="24.6"/>
					<g id="music" class="st2">
						<g>
							<g>
								<g>
									<g>
										<rect x="91.2" y="54.6" class="st10" width="8.9" height="1"/>
									</g>
									<g>
										<rect x="105.1" y="54.6" class="st10" width="20.7" height="1"/>
									</g>
								</g>
								<g>
									<g>
										<rect x="91.2" y="61.9" class="st10" width="6.1" height="1"/>
									</g>
									<g>
										<rect x="110.2" y="61.9" class="st10" width="15.7" height="1"/>
									</g>
								</g>
								<g>
									<g>
										<rect x="91.2" y="69.2" class="st10" width="12.9" height="1"/>
									</g>
									<g>
										<rect x="105.6" y="69.2" class="st10" width="20.3" height="1"/>
									</g>
								</g>
							</g>
							<g>
								<g>
									<path class="st10" d="M102.9,75.8c-1.6,0-2.1-1.4-2.1-1.4l0.9-0.4c0,0,0.3,0.8,1.2,0.8c1,0,1.7-0.8,1.7-1.7v-2.9
										c-0.1,0-0.2,0-0.3,0c-4.2,0-7.6-3.2-7.6-7.3c0-5.4,3.8-8.6,7.1-11.4c0.3-0.2,0.5-0.4,0.8-0.7V40l0.6,0.1
										c2.8,0.6,4.2,3,4.3,5c0,2.3-1.7,4.2-3.8,6V59c1.1,0.1,2.2,0.5,3.2,1.3c1.1,0.9,1.9,2.6,1.8,4c-0.1,2.9-2.1,5.2-5,5.8v3
										C105.7,74.5,104.4,75.8,102.9,75.8z M104.7,52c0,0-0.1,0.1-0.1,0.1c-3.2,2.7-6.8,5.7-6.7,10.7c0,3.6,2.9,6.3,6.6,6.3
										c0.1,0,0.2,0,0.3,0v-9.1c-0.1,0-0.3,0.1-0.4,0.1c-1,0.4-1.8,1.3-2,2.3l-1-0.2c0.2-1.4,1.2-2.6,2.6-3.1
										c0.2-0.1,0.5-0.2,0.7-0.2L104.7,52L104.7,52z M105.7,60v9c2.3-0.5,3.9-2.3,4-4.8c0-1.1-0.6-2.4-1.5-3.2
										C107.4,60.4,106.5,60,105.7,60z M105.7,41.2v8.6c1.7-1.5,2.9-3,2.8-4.7C108.5,43.9,107.7,42,105.7,41.2z"/>
								</g>
								<g>
									<path class="st10" d="M101.3,74.6c-0.9,0-1.6-0.7-1.6-1.6s0.7-1.6,1.6-1.6s1.6,0.7,1.6,1.6
										C102.9,73.9,102.2,74.6,101.3,74.6z M101.3,72.4c-0.3,0-0.6,0.3-0.6,0.6c0,0.3,0.3,0.6,0.6,0.6c0.3,0,0.6-0.3,0.6-0.6
										C101.9,72.7,101.6,72.4,101.3,72.4z"/>
								</g>
							</g>
						</g>
					</g>
				</g>
				<g class="st0">
					<circle class="st9" cx="78.1" cy="139.2" r="24.5"/>
					<g id="DNA-biology_1_" class="st2">
						<g>
							<g>
								<g>
									<g>
										<path class="st10" d="M89.8,156.5h-1v-2.8c0-3.7-1.8-7.2-4.7-9.4l-3.3-2.5l0.6-0.8l3.3,2.5c3.2,2.4,5.1,6.2,5.1,10.2
											V156.5z"/>
									</g>
									<g>
										<path class="st10" d="M74.8,137.3l-3.3-2.5c-3.2-2.4-5.1-6.2-5.1-10.2v-2.8h1v2.8c0,3.7,1.8,7.2,4.7,9.4l3.3,2.5
											L74.8,137.3z"/>
									</g>
								</g>
								<g>
									<path class="st10" d="M67.4,156.5h-1v-2.8c0-4,1.9-7.8,5.1-10.2l12.5-9.4c3-2.2,4.7-5.8,4.7-9.4v-2.8h1v2.8
										c0,4-1.9,7.8-5.1,10.2l-12.5,9.4c-3,2.2-4.7,5.8-4.7,9.4V156.5z"/>
								</g>
							</g>
							<g>
								<g>
									<rect x="66.9" y="123.6" class="st10" width="17.9" height="1"/>
								</g>
								<g>
									<rect x="68.1" y="128.1" class="st10" width="16.2" height="1"/>
								</g>
								<g>
									<rect x="70.3" y="132.5" class="st10" width="10.6" height="1"/>
								</g>
							</g>
							<g>
								<g>
									<rect x="71.4" y="153.8" class="st10" width="17.9" height="1"/>
								</g>
								<g>
									<rect x="72" y="149.3" class="st10" width="16.2" height="1"/>
								</g>
								<g>
									<rect x="75.3" y="144.8" class="st10" width="10.6" height="1"/>
								</g>
							</g>
						</g>
					</g>
				</g>
				<g class="st0">
					<circle class="st9" cx="235.8" cy="86.5" r="24.5"/>
					<g id="certificate" class="st2">
						<g>
							<g>
								<g>
									<path class="st10" d="M250.7,99.2h-5.9v-1h5.9c0.3,0,0.5-0.2,0.5-0.5V73c0-0.3-0.2-0.5-0.5-0.5h-29.8
										c-0.3,0-0.5,0.2-0.5,0.5v24.7c0,0.3,0.2,0.5,0.5,0.5h5.9v1h-5.9c-0.8,0-1.5-0.7-1.5-1.5V73c0-0.8,0.7-1.5,1.5-1.5h29.8
										c0.8,0,1.5,0.7,1.5,1.5v24.7C252.2,98.5,251.5,99.2,250.7,99.2z"/>
								</g>
								<g>
									<path class="st10" d="M246.6,96.1h-1v-1h0.1c0.2-1.3,1.2-2.3,2.5-2.5V78.1c-1.3-0.2-2.3-1.2-2.5-2.5h-19.7
										c-0.2,1.3-1.2,2.3-2.5,2.5v14.5c1.3,0.2,2.3,1.2,2.5,2.5h4v1h-5v-0.5c0-1.1-0.9-2.1-2.1-2.1h-0.5V77.1h0.5
										c1.1,0,2.1-0.9,2.1-2.1v-0.5h21.6V75c0,1.1,0.9,2.1,2.1,2.1h0.5v16.4h-0.5c-1.1,0-2.1,0.9-2.1,2.1V96.1z"/>
								</g>
								<g>
									<rect x="232.2" y="79.2" class="st10" width="7.2" height="1"/>
								</g>
								<g>
									<rect x="229.1" y="82.8" class="st10" width="13.4" height="1"/>
								</g>
							</g>
							<g>
								<g>
									<path class="st10" d="M235.8,100.5c-0.6,0-1.3-0.3-1.8-0.8l-0.1-0.1c-0.3-0.3-0.7-0.5-1.1-0.5h-0.1c-1.4,0-2.6-1.2-2.6-2.6
										v-0.1c0-0.4-0.2-0.8-0.5-1.1l-0.1-0.1c-1-1-1-2.6,0-3.6l0.1-0.1c0.3-0.3,0.5-0.7,0.5-1.1v-0.1c0-1.4,1.1-2.6,2.6-2.6h0.1
										c0.4,0,0.8-0.2,1.1-0.5l0.1-0.1c1-1,2.6-1,3.6,0l0.1,0.1c0.3,0.3,0.7,0.5,1.1,0.5h0.1c1.4,0,2.6,1.2,2.6,2.6v0.1
										c0,0.4,0.2,0.8,0.5,1.1l0.1,0.1c1,1,1,2.6,0,3.6l-0.1,0.1c-0.3,0.3-0.5,0.7-0.5,1.1v0.1c0,1.4-1.1,2.6-2.6,2.6h-0.1
										c-0.4,0-0.8,0.2-1.1,0.5l-0.1,0.1C237.1,100.2,236.4,100.5,235.8,100.5z M232.7,88.9c-0.9,0-1.6,0.7-1.6,1.6v0.1
										c0,0.7-0.3,1.3-0.8,1.8l-0.1,0.1c-0.6,0.6-0.6,1.6,0,2.2l0.1,0.1c0.5,0.5,0.8,1.1,0.8,1.8v0.1c0,0.9,0.7,1.6,1.6,1.6h0.1
										c0.7,0,1.3,0.3,1.8,0.8l0.1,0.1c0.6,0.6,1.6,0.6,2.2,0l0.1-0.1c0.5-0.5,1.1-0.8,1.8-0.8h0.1c0.9,0,1.6-0.7,1.6-1.6v-0.1
										c0-0.7,0.3-1.3,0.8-1.8l0.1-0.1c0.6-0.6,0.6-1.6,0-2.2l-0.1-0.1c-0.5-0.5-0.8-1.1-0.8-1.8v-0.1c0-0.9-0.7-1.6-1.6-1.6h-0.1
										c-0.7,0-1.3-0.3-1.8-0.8l-0.1-0.1c-0.6-0.6-1.6-0.6-2.2,0l-0.1,0.1c-0.5,0.5-1.1,0.8-1.8,0.8H232.7z"/>
								</g>
								<g>
									<polygon class="st10" points="240.5,104.8 236.9,100 237.7,99.4 240.3,102.8 241.6,99.8 244.6,99.3 242.1,96.1 240.6,96.1 
										241.9,94.2 242.6,95.1 246.1,95.1 246.1,96.1 243.4,96.1 246.5,100.1 242.3,100.7 									"/>
								</g>
								<g>
									<polygon class="st10" points="231,104.8 229.3,100.7 225.1,100.1 229.2,94.8 230,95.4 226.9,99.3 229.9,99.8 231.3,102.8 
										233.8,99.4 234.6,100 									"/>
								</g>
								<g>
									<path class="st10" d="M235.8,97.1c-2,0-3.6-1.6-3.6-3.6c0-2,1.6-3.6,3.6-3.6s3.6,1.6,3.6,3.6S237.8,97.1,235.8,97.1z
										 M235.8,90.9c-1.4,0-2.6,1.2-2.6,2.6c0,1.4,1.2,2.6,2.6,2.6s2.6-1.2,2.6-2.6S237.2,90.9,235.8,90.9z"/>
								</g>
							</g>
						</g>
					</g>
				</g>
				<g class="st0">
					
						<ellipse transform="matrix(0.1602 -0.9871 0.9871 0.1602 45.4222 397.1874)" class="st9" cx="256.1" cy="171.9" rx="24.6" ry="24.5"/>
					<g class="st2">
						<path class="st11" d="M108.5,83c-13.8,0-25.1-11.2-25.1-25s11.2-25,25.1-25s25.1,11.2,25.1,25C133.6,71.7,122.3,83,108.5,83z
							 M108.5,33.9c-13.3,0-24.1,10.8-24.1,24S95.3,82,108.5,82s24.1-10.8,24.1-24S121.8,33.9,108.5,33.9z"/>
					</g>
					<g class="st2">
						<path class="st11" d="M78.1,164.2c-13.8,0-25-11.2-25-25.1s11.2-25.1,25-25.1s25,11.2,25,25.1
							C103.2,153,91.9,164.2,78.1,164.2z M78.1,115.1c-13.3,0-24,10.8-24,24s10.8,24.1,24,24.1s24-10.8,24-24.1
							S91.4,115.1,78.1,115.1z"/>
					</g>
					<g class="st2">
						<path class="st11" d="M235.8,111.5c-13.8,0-25.1-11.2-25.1-25.1s11.2-25,25.1-25s25.1,11.2,25.1,25
							C260.8,100.3,249.6,111.5,235.8,111.5z M235.8,62.4c-13.3,0-24.1,10.8-24.1,24s10.8,24,24.1,24c13.3,0,24.1-10.8,24.1-24.1
							S249,62.4,235.8,62.4z"/>
					</g>
					<g class="st2">
						<path class="st11" d="M256.1,196.9c-13.8,0-25.1-11.2-25.1-25.1s11.2-25.1,25.1-25.1s25,11.2,25,25.1
							C281.2,185.7,269.9,196.9,256.1,196.9z M256.1,147.9c-13.3,0-24.1,10.8-24.1,24.1c0,13.3,10.8,24.1,24.1,24.1s24-10.8,24-24.1
							S269.4,147.9,256.1,147.9z"/>
					</g>
					<g id="microscope-sciences_2_" class="st2">
						<g>
							<g>
								<g>
									<path class="st10" d="M271,189.5h-29.6V189c0-1.8,1.5-3.3,3.3-3.3h23.1c1.8,0,3.3,1.5,3.3,3.3V189.5z M242.4,188.5h27.5
										c-0.2-1-1.1-1.8-2.2-1.8h-23.1C243.5,186.7,242.6,187.5,242.4,188.5z"/>
								</g>
								<g>
									<path class="st10" d="M257.7,186.3h-1v-3.9c0-1.9-1.5-3.4-3.4-3.4s-3.4,1.5-3.4,3.4v3.9h-1v-3.9c0-2.4,1.9-4.4,4.4-4.4
										c2.4,0,4.4,1.9,4.4,4.4V186.3z"/>
								</g>
								<g>
									<path class="st10" d="M257.2,170.2c-2.4,0-4.4-1.9-4.4-4.4s1.9-4.4,4.4-4.4c2.4,0,4.4,1.9,4.4,4.4S259.6,170.2,257.2,170.2
										z M257.2,162.5c-1.9,0-3.4,1.5-3.4,3.4s1.5,3.4,3.4,3.4s3.4-1.5,3.4-3.4C260.6,164,259.1,162.5,257.2,162.5z"/>
								</g>
								<g>
									<path class="st10" d="M257.2,167.4c-0.9,0-1.6-0.7-1.6-1.6s0.7-1.6,1.6-1.6s1.6,0.7,1.6,1.6
										C258.8,166.7,258.1,167.4,257.2,167.4z M257.2,165.3c-0.3,0-0.6,0.3-0.6,0.6s0.3,0.6,0.6,0.6c0.3,0,0.6-0.3,0.6-0.6
										C257.8,165.5,257.6,165.3,257.2,165.3z"/>
								</g>
								<g>
									<path class="st10" d="M249.4,183.7c-4.7-1.1-8.1-5.3-8.1-10.1c0-5.5,4.3-10.1,9.8-10.4h2.9v1h-2.9c-5,0.3-8.9,4.4-8.9,9.4
										c0,4.3,3.1,8.2,7.3,9.2L249.4,183.7z"/>
								</g>
								<g>
									<path class="st10" d="M251.1,179.5c-3-0.3-5.4-2.9-5.4-6c0-3.3,2.7-6,6-6h2.2v1h-2.2c-2.8,0-5,2.3-5,5c0,2.5,2,4.7,4.5,5
										L251.1,179.5z"/>
								</g>
								<g>
									<path class="st10" d="M268.2,186.2h-1v-2.8c0-0.3-0.3-0.6-0.6-0.6h-9.4v-1h9.4c0.9,0,1.6,0.7,1.6,1.6V186.2z"/>
								</g>
								<g>
									<path class="st10" d="M253.4,184c-0.9,0-1.6-0.7-1.6-1.6s0.7-1.6,1.6-1.6s1.6,0.7,1.6,1.6S254.3,184,253.4,184z
										 M253.4,181.8c-0.3,0-0.6,0.3-0.6,0.6s0.3,0.6,0.6,0.6s0.6-0.3,0.6-0.6C254,182,253.7,181.8,253.4,181.8z"/>
								</g>
							</g>
							<g>
								<g>
									<path class="st10" d="M259.4,173.5h-1.6c-0.6,0-1-0.5-1-1.1v-2.8h1v2.8l1.7,0.1L259.4,173.5L259.4,173.5z"/>
								</g>
								<g>
									<path class="st10" d="M267.1,173.5h-7.7v-1h7.7l0-13.3c0-0.3-0.3-0.6-0.6-0.6h-8.3c-0.3,0-0.6,0.3-0.6,0.6v2.8h-1v-2.8
										c0-0.9,0.7-1.6,1.6-1.6h8.3c0.9,0,1.6,0.7,1.6,1.6v13.2C268.2,173,267.7,173.5,267.1,173.5z"/>
								</g>
								<g>
									<polygon class="st10" points="264.9,158.1 263.9,158.1 263.9,155.3 261,155.3 261,158.1 260,158.1 260,154.3 264.9,154.3 
																			"/>
								</g>
								<g>
									<rect x="259.4" y="154.3" class="st10" width="6" height="1"/>
								</g>
								<g>
									<polygon class="st10" points="266.5,176.3 258.4,176.3 258.4,173 259.4,173 259.4,175.3 265.5,175.3 265.5,173 266.5,173 
																			"/>
								</g>
								<g>
									<polygon class="st10" points="264.9,180.1 260,180.1 260,175.8 261,175.8 261,179.1 263.9,179.1 263.9,175.8 264.9,175.8 
																			"/>
								</g>
							</g>
						</g>
					</g>
				</g>
				<ellipse class="st12" cx="301.4" cy="141.4" rx="10.1" ry="10.1"/>
				<path class="st12" d="M35.8,191.1c0,2.8-2.3,5.1-5.1,5.1s-5.1-2.3-5.1-5.1s2.3-5.1,5.1-5.1S35.8,188.3,35.8,191.1z"/>
				<circle class="st12" cx="113.1" cy="108.9" r="8.3"/>
				<ellipse class="st12" cx="204.4" cy="35.1" rx="8.3" ry="8.3"/>
				<path class="st12" d="M269.6,230.2c0,2.3-1.9,4.1-4.1,4.1s-4.1-1.9-4.1-4.1s1.9-4.1,4.1-4.1
					C267.8,226.1,269.6,227.9,269.6,230.2z"/>
				<path class="st12" d="M35.8,91.2c0,2.3-1.9,4.2-4.1,4.2s-4.1-1.9-4.1-4.2s1.9-4.2,4.1-4.2S35.8,88.9,35.8,91.2z"/>
				<g class="st0">
					<g class="st2">
						<g>
							<g>
								<polygon class="st13" points="142.9,286 142.9,281.3 65,281.3 65,286 69.2,286 								"/>
								<polygon class="st13" points="69.2,312 65,312 65,316.8 142.9,316.8 142.9,312 								"/>
								<rect x="142.9" y="312" class="st14" width="86.8" height="4.7"/>
								<rect x="142.9" y="281.3" class="st14" width="86.8" height="4.7"/>
								<rect x="65" y="286" class="st13" width="4.2" height="26"/>
								<rect x="69.2" y="286" class="st15" width="70.8" height="26"/>
								<rect x="140" y="286" class="st16" width="84.5" height="26"/>
							</g>
							<g>
								<polygon class="st10" points="162.4,250.5 162.4,245.8 84.5,245.8 84.5,250.5 88.7,250.5 								"/>
								<polygon class="st10" points="88.7,276.5 84.5,276.5 84.5,281.3 162.4,281.3 162.4,276.5 								"/>
								<rect x="162.4" y="276.5" class="st17" width="86.8" height="4.7"/>
								<rect x="162.4" y="245.8" class="st17" width="86.8" height="4.7"/>
								<rect x="84.5" y="250.5" class="st10" width="4.2" height="26"/>
								<rect x="88.7" y="250.5" class="st15" width="70.8" height="26"/>
								<rect x="159.6" y="250.5" class="st16" width="84.5" height="26"/>
							</g>
							<g>
								<polygon class="st18" points="151.4,215.3 151.4,210.6 73.5,210.6 73.5,215.3 77.7,215.3 								"/>
								<polygon class="st18" points="77.7,241.3 73.5,241.3 73.5,246.1 151.4,246.1 151.4,241.3 								"/>
								<rect x="151.4" y="241.3" class="st11" width="86.8" height="4.7"/>
								<rect x="151.4" y="210.6" class="st11" width="86.8" height="4.7"/>
								<rect x="73.5" y="215.3" class="st18" width="4.2" height="26"/>
								<rect x="77.7" y="215.3" class="st15" width="70.8" height="26"/>
								<rect x="148.5" y="215.3" class="st16" width="84.5" height="26"/>
							</g>
						</g>
						<polygon class="st13" points="78.1,293.8 78.1,303.9 81.9,301.2 85.7,303.9 85.7,293.8 						"/>
						<polygon class="st18" points="82.8,229.8 82.8,240 86.6,237.3 90.4,240 90.4,229.8 						"/>
						<path class="st16" d="M126.7,293.1H74.5c-0.6,0-0.6,0.9,0,0.9h52.2C127.2,294,127.3,293.1,126.7,293.1z"/>
						<path class="st16" d="M133.9,228.9H80.6c-0.6,0-0.6,0.9,0,0.9h53.3C134.4,229.7,134.4,228.9,133.9,228.9z"/>
					</g>
					<g class="st2">
						<g>
							<g>
								<path class="st19" d="M175.1,114.4c0-7-4.6-12.7-10.2-12.7c-5.6,0-10.2,5.7-10.2,12.7v21.8h19.7L175.1,114.4z"/>
								<polygon class="st20" points="154.7,136.2 154.7,169.1 173.2,166.9 174.3,136.2 								"/>
								<path class="st20" d="M127.8,174.5v-7.2l27.2-7.8c4.7,0,18.2,2.7,18.2,7l0,0C173.1,180,127.8,174.5,127.8,174.5z"/>
							</g>
							<g>
								<path class="st20" d="M120.5,170.1c-1.5-0.8-3.4-1.2-5.1-1.1c-1.6,0-3.2,0.5-4.5,1.5c-1.1,0.9-1.9,2.2-2.1,3.6
									c-0.1,0.7-0.2,1.4-0.2,2.1c0,0.4,0.1,0.9,0.2,1.3c0.1,0.6,0.5,0.9,0.9,1.3c0.6,0.5,1.5,0.1,1.9-0.4c0.4-0.6,0.4-1.3,0.4-2
									c0-0.3,0-0.5,0.1-0.8c0-0.1,0-0.3,0.1-0.4c0,0.4,0,0,0-0.1c0.1-0.3,0.1-0.5,0.2-0.8c0-0.1,0.1-0.2,0.1-0.3
									c0,0,0-0.1,0.1-0.1c0.1-0.2,0.2-0.3,0.3-0.5c-0.1,0.1,0.1-0.1,0.2-0.2c0.1-0.1,0.2-0.2,0.3-0.3c0,0,0,0,0.1,0c0,0,0,0,0.1,0
									c0.1-0.1,0.2-0.1,0.3-0.2c0,0,0.2-0.1,0.3-0.1c0.1,0,0.2-0.1,0.2-0.1c0.3-0.1,0.6-0.1,0.9-0.2c0,0,0.1,0,0.1,0s0,0,0.1,0
									c0.2,0,0.3,0,0.4,0c0.3,0,0.7,0,1,0.1c0.2,0,0.3,0,0.4,0.1c0.1,0,0.1,0,0.1,0c0,0,0.1,0,0.1,0c0.8,0.2,1.6,0.4,2.4,0.4
									c0.7,0,1.4-0.4,1.6-1.1C121.3,171.3,121.1,170.4,120.5,170.1z"/>
								<path class="st20" d="M124.6,170.6c-1.5-0.8-3.4-1.2-5.1-1.1c-1.6,0-3.2,0.5-4.5,1.5c-1.1,0.9-1.9,2.2-2.1,3.6
									c-0.1,0.7-0.2,1.4-0.2,2.1c0,0.4,0.1,0.9,0.2,1.3c0.1,0.6,0.5,0.9,0.9,1.3c0.6,0.5,1.5,0.1,1.9-0.4c0.4-0.6,0.4-1.3,0.4-2
									c0-0.3,0-0.5,0.1-0.8c0-0.1,0-0.3,0.1-0.4c0,0.4,0,0,0-0.1c0.1-0.3,0.1-0.5,0.2-0.8c0-0.1,0.1-0.2,0.1-0.3
									c0,0,0-0.1,0.1-0.1c0.1-0.2,0.2-0.3,0.3-0.5c-0.1,0.1,0.1-0.1,0.2-0.2c0.1-0.1,0.2-0.2,0.3-0.3c0,0,0,0,0.1,0c0,0,0,0,0.1,0
									c0.1-0.1,0.2-0.1,0.3-0.2c0,0,0.2-0.1,0.3-0.1c0.1,0,0.2-0.1,0.2-0.1c0.3-0.1,0.6-0.1,0.9-0.2c0,0,0.1,0,0.1,0s0,0,0.1,0
									c0.2,0,0.3,0,0.4,0c0.3,0,0.7,0,1,0.1c0.2,0,0.3,0,0.4,0.1c0.1,0,0.1,0,0.1,0c0,0,0.1,0,0.1,0c0.8,0.2,1.6,0.4,2.4,0.4
									c0.7,0,1.4-0.4,1.6-1.1C125.4,171.8,125.2,170.9,124.6,170.6z"/>
								<path class="st20" d="M128.5,171.1c-1.5-0.8-3.4-1.2-5.1-1.1c-1.6,0-3.2,0.5-4.5,1.5c-1.1,0.9-1.9,2.2-2.1,3.6
									c-0.1,0.7-0.2,1.4-0.2,2.1c0,0.4,0.1,0.9,0.2,1.3c0.1,0.6,0.5,0.9,0.9,1.3c0.6,0.5,1.5,0.1,1.9-0.4c0.4-0.6,0.4-1.3,0.4-2
									c0-0.3,0-0.5,0.1-0.8c0-0.1,0-0.3,0.1-0.4c0,0.4,0,0,0-0.1c0.1-0.3,0.1-0.5,0.2-0.8c0-0.1,0.1-0.2,0.1-0.3
									c0,0,0-0.1,0.1-0.1c0.1-0.2,0.2-0.3,0.3-0.5c-0.1,0.1,0.1-0.1,0.2-0.2c0.1-0.1,0.2-0.2,0.3-0.3c0,0,0,0,0.1,0c0,0,0,0,0.1,0
									c0.1-0.1,0.2-0.1,0.3-0.2c0,0,0.2-0.1,0.3-0.1c0.1,0,0.2-0.1,0.2-0.1c0.3-0.1,0.6-0.1,0.9-0.2c0,0,0.1,0,0.1,0s0,0,0.1,0
									c0.2,0,0.3,0,0.4,0c0.3,0,0.7,0,1,0.1c0.2,0,0.3,0,0.4,0.1c0.1,0,0.1,0,0.1,0c0,0,0.1,0,0.1,0c0.8,0.2,1.6,0.4,2.4,0.4
									c0.7,0,1.4-0.4,1.6-1.1C129.3,172.3,129.1,171.4,128.5,171.1z"/>
								<path class="st20" d="M114.9,173.2c1.3,1.1,4.6,2.3,6.3,2.9c3.2,1.1,7.2-0.3,9-3.2l-2.3-5.6l-16.6,0.5L114.9,173.2z"/>
								<path class="st20" d="M116.3,168.9c-1.5-0.8-3.4-1.2-5.1-1.1c-1.6,0-3.2,0.5-4.5,1.5c-1.1,0.9-1.9,2.2-2.1,3.6
									c-0.1,0.7-0.2,1.4-0.2,2.1c0,0.4,0.1,0.9,0.2,1.3c0.1,0.6,0.5,0.9,0.9,1.3c0.6,0.5,1.5,0.1,1.9-0.4c0.4-0.6,0.4-1.3,0.4-2
									c0-0.3,0-0.5,0.1-0.8c0-0.1,0-0.3,0.1-0.4c0,0.4,0,0,0-0.1c0.1-0.3,0.1-0.5,0.2-0.8c0-0.1,0.1-0.2,0.1-0.3
									c0,0,0-0.1,0.1-0.1c0.1-0.2,0.2-0.3,0.3-0.5c-0.1,0.1,0.1-0.1,0.2-0.2c0.1-0.1,0.2-0.2,0.3-0.3c0,0,0,0,0.1,0c0,0,0,0,0.1,0
									c0.1-0.1,0.2-0.1,0.3-0.2c0,0,0.2-0.1,0.3-0.1c0.1,0,0.2-0.1,0.2-0.1c0.3-0.1,0.6-0.1,0.9-0.2c0,0,0.1,0,0.1,0s0,0,0.1,0
									c0.2,0,0.3,0,0.4,0c0.3,0,0.7,0,1,0.1c0.2,0,0.3,0,0.4,0.1c0.1,0,0.1,0,0.1,0c0,0,0.1,0,0.1,0c0.8,0.2,1.6,0.4,2.4,0.4
									c0.7,0,1.4-0.4,1.6-1.1C117.2,170.1,117,169.2,116.3,168.9z"/>
							</g>
							<path class="st21" d="M162.7,165.9c-1.4-3.1-4.2-5.4-7.4-6.4c-0.6-0.2-0.9,0.8-0.3,1c3,0.9,5.5,3,6.8,5.9
								C162.1,166.9,163,166.4,162.7,165.9z"/>
						</g>
						<g>
							<g>
								<g>
									<polygon class="st22" points="97.5,265.4 97.8,269 111.8,269 112.1,265.4 									"/>
									<path class="st10" d="M186.1,172.1h-26.6c-0.1,3.6-0.9,9.9-0.9,9.9c-6.3,1-12.6,1.5-19,2c-5.9,0.5-32.2-0.4-37.8,0.7
										c-4.6,0.9-7,1.2-8.2,6.8c-1.8,8.4,2.1,73.8,2.1,73.8h18l3.5-52.9c9.1,1.8,18.5,1.4,27.7,0.8c10.9-0.7,30.3-2.5,34.9-12.4
										C182.5,195.4,187.3,175.8,186.1,172.1z"/>
									<path class="st17" d="M186.1,172.1h-26.6c-0.1,3.6-0.9,9.9-0.9,9.9c-6.3,1-12.6,1.5-19,2c-5.4,0.5-10.7,0.9-16.1,1.4
										c-8.7,3.6-15.5,10.1-16.2,20.8c-0.7,13.1,0.8,28,7.7,39.5l2.2-33.4c9.1,1.8,18.5,1.4,27.7,0.8c10.9-0.7,30.3-2.5,34.9-12.4
										C182.5,195.4,187.3,175.8,186.1,172.1z"/>
								</g>
								<path class="st23" d="M97.8,269l-14.1,5.3c-2.7,1-4.4,3.5-4.4,6.4l0,0c0,0.4,0.3,0.7,0.7,0.7h30.4c1.9,0,3.4-1.8,3-3.6
									l-1.6-8.7L97.8,269L97.8,269z"/>
							</g>
							<path class="st17" d="M110.8,260.9c-4.1,0.7-8.3,0.8-12.4,0.1c-0.6-0.1-0.7,0.9,0,1c4.2,0.6,8.5,0.5,12.7-0.2
								C111.6,261.7,111.4,260.7,110.8,260.9z"/>
						</g>
						<g>
							<g>
								<g>
									<polygon class="st22" points="139.5,265.4 141.5,269 154.7,269 154.1,265.4 									"/>
									<path class="st10" d="M142.8,200.6c0-7.3-5.9-13.1-13.1-13.1l0,0c-7.3,0-16.2,6.7-12.8,18l20.9,59.9h18.1L142.8,200.6z"/>
									<path class="st10" d="M204,172.1h-27.5c-0.1,3.6,0.4,8.4,1.7,9.9c-10.6,1.7-40.1,3.9-50.7,5.6c-5.2,6.8,5.4,16.4,10,23.7
										c10.4,3.1,30.1,2.6,40.9,1.9c10.9-0.7,21.7-2.5,26.3-12.4c2.5-5.4,2.9-11.7,2-17.6C206.2,179.5,205.2,175.8,204,172.1z"/>
									<path class="st17" d="M205.7,198.5c1.7-4.9,1.8-10.2,1.1-15.3c-0.6-3.8-1.6-7.5-2.8-11.1h-27.5c-0.1,3.6,0.4,8.4,1.7,9.9
										c-5,0.8-14.4,1.7-23.9,2.7C169.1,196.1,188.1,202.4,205.7,198.5z"/>
								</g>
								<path class="st23" d="M141.5,269l-14.1,5.3c-2.7,1-4.4,3.5-4.4,6.4l0,0c0,0.4,0.3,0.7,0.7,0.7h32c1.9,0,3.2-1.9,2.6-3.7
									l-3.7-8.7H141.5z"/>
							</g>
							<path class="st17" d="M152.8,260.9c-4.1,0.7-8.3,0.8-12.4,0.1c-0.6-0.1-0.6,0.9,0,1c4.2,0.6,8.5,0.5,12.7-0.2
								C153.6,261.7,153.4,260.7,152.8,260.9z"/>
						</g>
						<path class="st24" d="M202.6,100.3c-12.2-4.8-25.8-4.8-38-0.1c-6,2.3-9.6,8.7-8.9,15.3c2.4,21.8,1.7,43.5-1.4,65.4
							c16.3,11.9,36.3,15.3,54.7,8.7c5.1-22.9,6.7-50,4.5-74.3C213,108.6,208.8,102.7,202.6,100.3z"/>
						<g>
							<g>
								<path class="st11" d="M190.1,193.4c-12.5,0-25-4.1-36-12.1l-0.2-0.2l0-0.3c3.2-23,3.7-44.3,1.4-65.3c0-0.3,0.2-0.5,0.4-0.6
									c0.3,0,0.5,0.2,0.6,0.4c2.3,20.9,1.8,42.3-1.4,65.2c16.2,11.7,35.8,14.8,53.8,8.6c5-22.7,6.6-49.6,4.5-73.8
									c0-0.3,0.2-0.5,0.4-0.5c0.3,0,0.5,0.2,0.5,0.4c2.2,24.5,0.5,51.6-4.5,74.4l-0.1,0.3l-0.3,0.1
									C203,192.4,196.5,193.4,190.1,193.4z"/>
							</g>
						</g>
						<g>
							<g>
								<path class="st25" d="M212.5,117.9c0-7-4.6-12.7-10.2-12.7c-5.6,0-10.2,5.7-10.2,12.7v21.8h19.7L212.5,117.9z"/>
								<polygon class="st22" points="192,139.7 192,172.6 210.6,170.4 211.7,139.7 								"/>
								<path class="st22" d="M165.2,178v-7.2l27.2-7.8c4.7,0,18.2,2.7,18.2,7l0,0C210.4,183.4,165.2,178,165.2,178z"/>
							</g>
							<g>
								<path class="st22" d="M157.9,173.6c-1.5-0.8-3.4-1.2-5.1-1.1c-1.6,0-3.2,0.5-4.5,1.5c-1.1,0.9-1.9,2.2-2.1,3.6
									c-0.1,0.7-0.2,1.4-0.2,2.1c0,0.4,0.1,0.9,0.1,1.3c0.1,0.6,0.5,0.9,0.9,1.3c0.6,0.5,1.5,0.1,1.9-0.4c0.4-0.6,0.4-1.3,0.4-2
									c0-0.3,0-0.5,0.1-0.8c0-0.1,0-0.3,0.1-0.4c0,0.4,0,0,0-0.1c0.1-0.3,0.1-0.5,0.2-0.8c0-0.1,0.1-0.2,0.1-0.3
									c0,0,0-0.1,0.1-0.1c0.1-0.2,0.2-0.3,0.3-0.5c-0.1,0.1,0.1-0.1,0.2-0.2c0.1-0.1,0.2-0.2,0.3-0.3c0,0,0,0,0.1,0c0,0,0,0,0.1,0
									c0.1-0.1,0.2-0.1,0.3-0.2c0,0,0.2-0.1,0.3-0.1c0.1,0,0.2-0.1,0.2-0.1c0.3-0.1,0.6-0.1,0.9-0.2c0,0,0.1,0,0.1,0s0,0,0.1,0
									c0.1,0,0.3,0,0.4,0c0.3,0,0.7,0,1,0.1c0.1,0,0.3,0,0.4,0.1c0.1,0,0.1,0,0.1,0c0,0,0.1,0,0.1,0c0.8,0.2,1.6,0.4,2.4,0.4
									c0.7,0,1.4-0.4,1.6-1.1C158.7,174.8,158.5,173.9,157.9,173.6z"/>
								<path class="st22" d="M162,174.1c-1.5-0.8-3.4-1.2-5.1-1.1c-1.6,0-3.2,0.5-4.5,1.5c-1.1,0.9-1.9,2.2-2.1,3.6
									c-0.1,0.7-0.2,1.4-0.2,2.1c0,0.4,0.1,0.9,0.1,1.3c0.1,0.6,0.5,0.9,0.9,1.3c0.6,0.5,1.5,0.1,1.9-0.4c0.4-0.6,0.4-1.3,0.4-2
									c0-0.3,0-0.5,0.1-0.8c0-0.1,0-0.3,0.1-0.4c0,0.4,0,0,0-0.1c0.1-0.3,0.1-0.5,0.2-0.8c0-0.1,0.1-0.2,0.1-0.3
									c0,0,0-0.1,0.1-0.1c0.1-0.2,0.2-0.3,0.3-0.5c-0.1,0.1,0.1-0.1,0.2-0.2c0.1-0.1,0.2-0.2,0.3-0.3c0,0,0,0,0.1,0c0,0,0,0,0.1,0
									c0.1-0.1,0.2-0.1,0.3-0.2c0,0,0.2-0.1,0.3-0.1c0.1,0,0.2-0.1,0.2-0.1c0.3-0.1,0.6-0.1,0.9-0.2c0,0,0.1,0,0.1,0s0,0,0.1,0
									c0.1,0,0.3,0,0.4,0c0.3,0,0.7,0,1,0.1c0.1,0,0.3,0,0.4,0.1c0.1,0,0.1,0,0.1,0c0,0,0.1,0,0.1,0c0.8,0.2,1.6,0.4,2.4,0.4
									c0.7,0,1.4-0.4,1.6-1.1C162.8,175.3,162.6,174.4,162,174.1z"/>
								<path class="st22" d="M165.8,174.6c-1.5-0.8-3.4-1.2-5.1-1.1c-1.6,0-3.2,0.5-4.5,1.5c-1.1,0.9-1.9,2.2-2.1,3.6
									c-0.1,0.7-0.2,1.4-0.2,2.1c0,0.4,0.1,0.9,0.1,1.3c0.1,0.6,0.5,0.9,0.9,1.3c0.6,0.5,1.5,0.1,1.9-0.4c0.4-0.6,0.4-1.3,0.4-2
									c0-0.3,0-0.5,0.1-0.8c0-0.1,0-0.3,0.1-0.4c0,0.4,0,0,0-0.1c0.1-0.3,0.1-0.5,0.2-0.8c0-0.1,0.1-0.2,0.1-0.3
									c0,0,0-0.1,0.1-0.1c0.1-0.2,0.2-0.3,0.3-0.5c-0.1,0.1,0.1-0.1,0.2-0.2c0.1-0.1,0.2-0.2,0.3-0.3c0,0,0,0,0.1,0c0,0,0,0,0.1,0
									c0.1-0.1,0.2-0.1,0.3-0.2c0,0,0.2-0.1,0.3-0.1c0.1,0,0.2-0.1,0.2-0.1c0.3-0.1,0.6-0.1,0.9-0.2c0,0,0.1,0,0.1,0s0,0,0.1,0
									c0.1,0,0.3,0,0.4,0c0.3,0,0.7,0,1,0.1c0.1,0,0.3,0,0.4,0.1c0.1,0,0.1,0,0.1,0c0,0,0.1,0,0.1,0c0.8,0.2,1.6,0.4,2.4,0.4
									c0.7,0,1.4-0.4,1.6-1.1C166.6,175.8,166.5,174.9,165.8,174.6z"/>
								<path class="st22" d="M152.2,176.7c1.4,1.1,4.6,2.3,6.3,2.9c3.2,1.1,7.2-0.3,9-3.2l-2.3-5.6l-16.6,0.5L152.2,176.7z"/>
								<path class="st22" d="M153.7,172.4c-1.5-0.8-3.4-1.2-5.1-1.1c-1.6,0-3.2,0.5-4.5,1.5c-1.1,0.9-1.9,2.2-2.1,3.6
									c-0.1,0.7-0.2,1.4-0.2,2.1c0,0.4,0.1,0.9,0.1,1.3c0.1,0.6,0.5,0.9,0.9,1.3c0.6,0.5,1.5,0.1,1.9-0.4c0.4-0.6,0.4-1.3,0.4-2
									c0-0.3,0-0.5,0.1-0.8c0-0.1,0-0.3,0.1-0.4c0,0.4,0,0,0-0.1c0.1-0.3,0.1-0.5,0.2-0.8c0-0.1,0.1-0.2,0.1-0.3
									c0,0,0-0.1,0.1-0.1c0.1-0.2,0.2-0.3,0.3-0.5c-0.1,0.1,0.1-0.1,0.2-0.2c0.1-0.1,0.2-0.2,0.3-0.3c0,0,0,0,0.1,0c0,0,0,0,0.1,0
									c0.1-0.1,0.2-0.1,0.3-0.2c0,0,0.2-0.1,0.3-0.1c0.1,0,0.2-0.1,0.2-0.1c0.3-0.1,0.6-0.1,0.9-0.2c0,0,0.1,0,0.1,0s0,0,0.1,0
									c0.1,0,0.3,0,0.4,0c0.3,0,0.7,0,1,0.1c0.1,0,0.3,0,0.4,0.1c0.1,0,0.1,0,0.1,0c0,0,0.1,0,0.1,0c0.8,0.2,1.6,0.4,2.4,0.4
									c0.7,0,1.4-0.4,1.6-1.1C154.5,173.6,154.3,172.7,153.7,172.4z"/>
							</g>
							<path class="st26" d="M200.1,169.3c-1.4-3.1-4.2-5.4-7.4-6.4c-0.6-0.2-0.9,0.8-0.3,1c3,0.9,5.5,3,6.8,5.9
								C199.5,170.4,200.4,169.9,200.1,169.3z"/>
						</g>
						<path class="st17" d="M136.2,201.1c-0.5-0.2-0.8,0.6-0.3,0.8c4.8,1.6,8.3,6.1,8.8,11c0.1,0.6,0.9,0.4,0.8-0.2
							C145,207.6,141.2,202.9,136.2,201.1z"/>
						<path class="st11" d="M206.6,187.9c-6.3,1.8-12.9,2.6-19.4,2.2c-6.5-0.4-13-1.8-19.1-4.2c-3.4-1.4-6.7-3.1-9.8-5.1
							c-0.5-0.3-0.9,0.4-0.5,0.7c5.6,3.6,11.8,6.3,18.2,7.8c6.4,1.6,13.1,2.1,19.7,1.5c3.7-0.3,7.4-1,11-2.1
							C207.4,188.6,207.2,187.8,206.6,187.9z"/>
						<path class="st17" d="M142.2,201.1c-0.2-0.5-1-0.1-0.8,0.4c0.8,1.9,1.3,3.8,1.6,5.8c0,0.2,0.3,0.4,0.5,0.3
							c0.3-0.1,0.4-0.3,0.3-0.5C143.6,205.1,143,203.1,142.2,201.1z"/>
						<g>
							<g>
								<polygon class="st27" points="143.8,184.9 92.8,184.9 85.2,151.6 136.1,151.6 								"/>
								<polygon class="st3" points="142.4,184.9 91.5,184.9 83.8,151.6 134.8,151.6 								"/>
							</g>
							<rect x="142.4" y="182.9" class="st27" width="32.7" height="2.4"/>
						</g>
						<path class="st11" d="M188.4,103.4c-1.9,3-5.2,4.9-8.7,5c-3.1,0.1-6.6-1.6-7.5-4.7c-0.2-0.5-1-0.3-0.8,0.2
							c0.8,2.7,3.2,4.5,5.8,5.1c2.9,0.7,6,0.1,8.4-1.5c1.4-0.9,2.7-2.1,3.6-3.6C189.4,103.4,188.7,103,188.4,103.4z"/>
						<path class="st11" d="M211.7,138.8h-20.3c-0.6,0-0.6,0.9,0,0.9h20.3C212.2,139.6,212.3,138.8,211.7,138.8z"/>
						<path class="st11" d="M189.8,124.8l0.9,14c0,0.6,0.9,0.6,0.9,0l-0.9-14C190.7,124.3,189.8,124.3,189.8,124.8z"/>
						<path class="st11" d="M212.5,128.3c-0.4,3.6-0.9,7.3-1.3,10.9c-0.1,0.6,0.8,0.6,0.9,0c0.4-3.6,0.9-7.3,1.3-10.9
							C213.4,127.8,212.6,127.8,212.5,128.3z"/>
						<g>
							<path class="st28" d="M157.9,62.3c-1,0.8-1.7,2-2,3.2c-0.6,1.9-0.1,4.2,1.2,5.7c1.4,1.5,3.6,2.2,5.5,1.4
								c-0.7-3.3-1.4-6.5-2.1-9.7L157.9,62.3z"/>
							<path class="st29" d="M158.8,62.3c-1,0.8-1.7,2-2,3.2c-0.6,1.9-0.1,4.2,1.2,5.7c1.4,1.5,3.6,2.2,5.5,1.4
								c-0.7-3.3-1.4-6.5-2.1-9.7L158.8,62.3z"/>
							<g>
								<g>
									<g>
										<path class="st26" d="M185.3,91.2L184,78.7L171.1,80l2,19.1C178,98.4,182.5,95.3,185.3,91.2z"/>
										<path class="st22" d="M186.2,99.9l-0.9-8.7c-2.8,4.1-7.3,7.2-12.1,7.9l0.2,2.1c0.4,3.6,3.6,6.1,7.1,5.8l0,0
											C184,106.6,186.6,103.4,186.2,99.9z"/>
									</g>
									<g>
										<g>
											<path class="st22" d="M172.1,93.7L172.1,93.7c-6.4,0.6-12.1-4.3-12.7-10.8L157.8,63l23.3-2l1.7,19.9
												C183.4,87.4,178.6,93.2,172.1,93.7z"/>
											<path class="st22" d="M188.3,76.1c0.2,2.3-1.5,4.3-3.8,4.5c-2.3,0.2-4.3-1.5-4.5-3.8c-0.2-2.3,1.5-4.3,3.8-4.5
												C186.1,72.1,188.1,73.8,188.3,76.1z"/>
										</g>
										<path class="st30" d="M172.4,74.7c0-0.1,0-0.1,0-0.2l0,0c-0.1-0.2-0.2-0.4-0.4-0.6c-0.2-0.2-0.4-0.3-0.6-0.3c0,0,0,0,0,0
											c-0.1,0-0.2,0-0.4,0s-0.3,0-0.4,0.1l-0.3,0.2l0,0l0,0c0,0-0.3,0.2-0.3,0.2c-0.1,0.1-0.1,0.2-0.2,0.3
											c0,0.1-0.1,0.2-0.1,0.2c0,0.1,0,0.1-0.1,0.2l0,0l0,0l0,0c0,0,0,0.3,0,0.4l0,0c0,0.1,0,0.2,0.1,0.4
											c0.1,0.1,0.1,0.2,0.1,0.3c0.1,0.1,0.1,0.2,0.2,0.3c0.1,0.1,0.2,0.1,0.3,0.2c0.1,0,0.2,0.1,0.3,0.1c0.1,0,0.2,0,0.4,0
											c0.1,0,0.2,0,0.4-0.1c0.2-0.1,0.3-0.1,0.4-0.3c0.1-0.1,0.2-0.2,0.2-0.3c0.1-0.1,0.1-0.2,0.2-0.3c0.1-0.1,0.1-0.2,0.1-0.3
											C172.5,74.9,172.5,74.8,172.4,74.7z"/>
										<path class="st30" d="M162.3,75.7c0-0.1,0-0.1,0-0.2l0,0c-0.1-0.2-0.2-0.4-0.4-0.6c-0.2-0.2-0.4-0.3-0.6-0.3c0,0,0,0,0,0
											c-0.1,0-0.2,0-0.4,0s-0.3,0-0.4,0.1l-0.3,0.2l0,0l0,0c0,0-0.3,0.2-0.3,0.2c-0.1,0.1-0.1,0.2-0.2,0.3
											c0,0.1-0.1,0.2-0.1,0.2c0,0.1,0,0.1-0.1,0.2l0,0l0,0l0,0c0,0,0,0.3,0,0.4l0,0c0,0.1,0,0.2,0.1,0.4
											c0.1,0.1,0.1,0.2,0.1,0.3c0.1,0.1,0.1,0.2,0.2,0.3c0.1,0.1,0.2,0.1,0.3,0.2c0.1,0,0.2,0.1,0.3,0.1c0.1,0,0.2,0,0.4,0
											c0.1,0,0.2,0,0.4-0.1c0.2-0.1,0.3-0.1,0.4-0.3c0.1-0.1,0.2-0.2,0.2-0.3c0.1-0.1,0.1-0.2,0.2-0.3c0.1-0.1,0.1-0.2,0.1-0.3
											C162.3,75.9,162.3,75.8,162.3,75.7z"/>
									</g>
									<path class="st30" d="M174.1,69.6c-0.9-0.8-2.1-1.2-3.3-1.2c-1.2,0-2.4,0.5-3.3,1.3c-0.2,0.2-0.2,0.6,0,0.8
										c0.2,0.2,0.6,0.2,0.8,0c1.4-1.2,3.5-1.2,4.9-0.1C173.8,70.9,174.6,70.1,174.1,69.6z"/>
									<path class="st30" d="M163.6,70c-0.9-0.8-2.1-1.2-3.3-1.2c-1.2,0-2.4,0.5-3.3,1.3c-0.2,0.2-0.2,0.6,0,0.8
										c0.2,0.2,0.6,0.2,0.8,0c1.4-1.2,3.5-1.2,4.9-0.1C163.4,71.3,164.1,70.4,163.6,70z"/>
								</g>
								<g>
									<g>
										<path d="M159.6,80.8c-2.6,0-4.7-2.1-4.7-4.7c0-2.6,2.1-4.7,4.7-4.7c2.6,0,4.7,2.1,4.7,4.7
											C164.3,78.6,162.2,80.8,159.6,80.8z M159.6,71.7c-2.4,0-4.3,1.9-4.3,4.3s1.9,4.3,4.3,4.3s4.3-1.9,4.3-4.3
											C163.9,73.6,162,71.7,159.6,71.7z"/>
									</g>
								</g>
								<g>
									<g>
										<path d="M171.2,79.6c-2.6,0-4.7-2.1-4.7-4.7c0-2.6,2.1-4.7,4.7-4.7c2.6,0,4.7,2.1,4.7,4.7
											C175.9,77.5,173.8,79.6,171.2,79.6z M171.2,70.6c-2.4,0-4.3,1.9-4.3,4.3s1.9,4.3,4.3,4.3s4.3-1.9,4.3-4.3
											C175.5,72.5,173.6,70.6,171.2,70.6z"/>
									</g>
								</g>
								<g>
									<g>
										<path d="M163.4,73.6l-0.2-0.4c1.2-0.6,2.6-0.7,3.9-0.4l-0.1,0.4C165.8,72.9,164.5,73,163.4,73.6z"/>
									</g>
								</g>
								<g>
									<g>
										<path d="M175.2,73.2l-0.1-0.4c3-0.8,6.1-1.2,9.2-1l0,0.4C181.2,72.1,178.2,72.4,175.2,73.2z"/>
									</g>
								</g>
								<path class="st26" d="M187.2,74.6c-0.6-0.9-1.7-1.5-2.8-1.4c-1.1,0.1-2,0.9-2.3,1.9c-0.2,0.5,0.6,0.8,0.8,0.3
									c0.2-0.7,0.9-1.2,1.6-1.3c0.7-0.1,1.5,0.3,1.9,0.9C186.8,75.5,187.5,75.1,187.2,74.6z"/>
							</g>
							<path class="st28" d="M181.9,72.7c-1.5-1.1-3-2.2-4.3-3.6c-1.3-1.4-2.3-3-2.7-4.8c-3.4,0.6-6.8,1.6-10.1,2.1
								s-7.1,0.1-9.8-1.9c-2.7-2.1-4-5.9-3.1-9.3c0.9-3.3,4-5.9,7.4-6.3c3.4-0.4,7,1.5,8.6,4.6c3.5-1.7,8-2.1,11.5-0.3
								c1.4,0.7,2.8,2,2.7,3.5c2.6,0.2,4.7,1.7,6.1,4c1.3,2.2,1.5,5.1,0.4,7.5S184.5,72.2,181.9,72.7z"/>
							<path class="st29" d="M181.9,72.7c-1.4-1-3.7-2-4.9-3.3c-1.2-1.3-2.1-2.8-2.5-4.5c-3.1,0.6-6.3,1.5-9.4,1.9s-6.5,0.1-9-1.8
								c-2.5-1.9-3.7-5.5-2.8-8.5c0.9-3.1,3.7-5.5,6.9-5.8c3.2-0.3,6.4,1.4,7.9,4.2c3.2-1.6,7.4-1.9,10.6-0.3
								c1.3,0.7,2.6,1.8,2.5,3.3c2.4,0.2,4.4,1.6,5.6,3.7c1.2,2.1,1.4,4.7,0.4,6.9C186.2,70.6,184.3,72.3,181.9,72.7z"/>
							<path class="st30" d="M165.7,85.8c0-0.3-0.3-0.4-0.5-0.4c-0.7,0-1.4-0.4-1.7-1c-0.4-0.6-0.3-1.4,0.1-2
								c0.5-0.7,1.3-0.8,1.9-1.3c0.6-0.5,0.9-1.3,0.4-2c-0.3-0.5-1,0-0.7,0.5c0.2,0.3-0.1,0.7-0.3,0.8c-0.4,0.3-0.8,0.4-1.2,0.7
								c-0.7,0.4-1.2,1.2-1.4,2c-0.3,1.8,1.1,3.2,2.9,3.2C165.6,86.3,165.7,86.1,165.7,85.8z"/>
							<path class="st30" d="M173.2,86.3c-1.2,2.2-3.7,3.1-6,2.3c-0.5-0.2-0.8,0.6-0.3,0.8c2.6,0.9,5.7-0.2,7-2.7
								C174.2,86.3,173.5,85.8,173.2,86.3z"/>
							<path class="st26" d="M173.5,90.1c-0.1-0.2-0.3-0.4-0.5-0.3c-1.1,0.4-2.1,0.7-3.2,1.1c-0.2,0.1-0.4,0.3-0.3,0.5
								c0.1,0.2,0.3,0.4,0.5,0.3c1.1-0.4,2.1-0.7,3.2-1.1C173.4,90.5,173.6,90.3,173.5,90.1z"/>
						</g>
						<path class="st17" d="M98.5,185.3c-2,0.1-3.6,1.5-4.5,3.3c-1.1,2.3-0.9,5-0.9,7.4c-0.1,5.6-0.1,11.1,0,16.7
							c0.1,11.1,0.4,22.1,1,33.2c0.3,6.3,0.7,12.5,1.2,18.7c0.1,0.6,1.1,0.7,1,0c-0.8-10.7-1.4-21.3-1.7-32
							c-0.4-10.7-0.5-21.4-0.5-32.1c0-1.5,0-3,0-4.5c0-1.4,0-2.9,0.1-4.4c0.2-2.3,1.5-5.3,4.2-5.4C99.1,186.3,99.1,185.3,98.5,185.3
							z"/>
						<path class="st17" d="M147.9,224.1l-2.2-11.4c-0.1-0.6-1.1-0.4-1,0.2c2.6,13.5,5.2,26.9,7.8,40.4l2.2,11.4
							c0.1,0.6,1.1,0.4,1-0.2C153.1,251.1,150.6,237.6,147.9,224.1z"/>
						<g>
							<g>
								<g>
									<path class="st27" d="M143.8,185.4H91.5c-0.2,0-0.4-0.2-0.5-0.4l-2.6-11.4c-0.1-0.3,0.1-0.5,0.4-0.6
										c0.3-0.1,0.5,0.1,0.6,0.4l2.5,11h51.3l-7.4-32.3H84.4l2.8,12.1c0.1,0.3-0.1,0.5-0.4,0.6c-0.3,0.1-0.5-0.1-0.6-0.4
										l-2.9-12.7c0-0.1,0-0.3,0.1-0.4s0.2-0.2,0.4-0.2h52.3c0.2,0,0.4,0.2,0.5,0.4l7.7,33.3c0,0.1,0,0.3-0.1,0.4
										C144.1,185.3,143.9,185.4,143.8,185.4z"/>
								</g>
							</g>
						</g>
					</g>
				</g>
			</g>
		</g>
	</g>
</g>
</svg>
